# xmcd CD database file
#
# Track frame offsets:
#	150
#	17932
#	32890
#	50635
#
# Disc length: 872 seconds
#
# Revision: 0
# Processed by: cddbd v1.5.1PL0 Copyright (c) Steve Scherf et al.
# Submitted via: CDex 1.40Release
#
DISCID=31036604
DTITLE=speena - MATERIAL GIRL
DYEAR=2005
DGENRE=Pop
TTITLE0=MATERIAL GIRL
TTITLE1=MATERIAL GIRL [instrumental]
TTITLE2=Toshishitano Otokonoko
TTITLE3=Toshishitano Otokonoko [instrumental]
EXTD=YEAR: 2005 ID3G: 13
EXTT0=
EXTT1=
EXTT2=
EXTT3=
PLAYORDER=
